<svg width="126" height="26" viewBox="0 0 126 26" fill="none" xmlns="http://www.w3.org/2000/svg">
<path d="M0 0.421097H11.1591C13.8261 0.421097 16.1772 0.935773 18.2125 1.96513C20.2712 2.97108 21.862 4.39814 22.985 6.24629C24.1313 8.09445 24.7044 10.2467 24.7044 12.7031C24.7044 15.1595 24.1313 17.3118 22.985 19.16C21.862 21.0081 20.2712 22.4469 18.2125 23.4762C16.1772 24.4822 13.8261 24.9852 11.1591 24.9852H0V0.421097ZM10.8784 20.318C13.3348 20.318 15.2882 19.6396 16.7387 18.2827C18.2125 16.9024 18.9494 15.0426 18.9494 12.7031C18.9494 10.3637 18.2125 8.51555 16.7387 7.15867C15.2882 5.77841 13.3348 5.08827 10.8784 5.08827H5.68483V20.318H10.8784Z" fill="black"/>
<path d="M48.0113 20.4233V24.9852H28.9916V0.421097H47.5551V4.983H34.6414V10.3169H46.0461V14.7384H34.6414V20.4233H48.0113Z" fill="black"/>
<path d="M52.5345 0.421097H58.2193V20.3531H70.5365V24.9852H52.5345V0.421097Z" fill="black"/>
<path d="M81.6468 25.4063C79.705 25.4063 77.8218 25.1489 75.997 24.6343C74.1957 24.0962 72.7452 23.4061 71.6457 22.5639L73.5757 18.2827C74.6285 19.0547 75.8801 19.6747 77.3305 20.1425C78.781 20.6104 80.2314 20.8444 81.6819 20.8444C83.2961 20.8444 84.4892 20.6104 85.2612 20.1425C86.0332 19.6513 86.4192 19.0079 86.4192 18.2125C86.4192 17.6276 86.1853 17.1481 85.7174 16.7738C85.2729 16.3761 84.688 16.0602 83.9628 15.8263C83.261 15.5923 82.3018 15.335 81.0853 15.0543C79.2138 14.6098 77.6814 14.1653 76.4883 13.7208C75.2952 13.2763 74.2659 12.5628 73.4003 11.5802C72.5581 10.5976 72.137 9.28756 72.137 7.64996C72.137 6.2229 72.523 4.93621 73.295 3.78989C74.067 2.62017 75.225 1.69609 76.7691 1.01765C78.3365 0.339218 80.2431 0 82.489 0C84.0564 0 85.5887 0.187155 87.086 0.561464C88.5832 0.935774 89.8933 1.47384 91.0162 2.17567L89.2616 6.49193C86.9924 5.20525 84.7231 4.5619 82.4539 4.5619C80.8631 4.5619 79.6816 4.81924 78.9096 5.33391C78.161 5.84859 77.7867 6.52703 77.7867 7.36922C77.7867 8.21142 78.2195 8.84307 79.0851 9.26417C79.9741 9.66187 81.3193 10.0596 83.1206 10.4573C84.9922 10.9018 86.5245 11.3463 87.7176 11.7908C88.9107 12.2352 89.9284 12.9371 90.7706 13.8962C91.6362 14.8554 92.069 16.1538 92.069 17.7914C92.069 19.1951 91.6713 20.4818 90.8758 21.6515C90.1038 22.7978 88.9341 23.7102 87.3667 24.3886C85.7993 25.0671 83.8926 25.4063 81.6468 25.4063Z" fill="black"/>
<path fill-rule="evenodd" clip-rule="evenodd" d="M96.5134 25.4726L96.5134 23.523L111.588 23.523L118.736 12.8006L111.588 2.0782L96.5134 2.0782L96.5134 0.128674L112.631 0.128673L121.079 12.8006L112.631 25.4726L96.5134 25.4726Z" fill="black"/>
<path fill-rule="evenodd" clip-rule="evenodd" d="M116.788 25.0826L115.229 23.9129L123.563 12.8006L115.229 1.68828L116.788 0.518562L126 12.8006L116.788 25.0826Z" fill="#E78431"/>
<path fill-rule="evenodd" clip-rule="evenodd" d="M109.38 20.0139L110.94 21.1836L117.227 12.8006L110.94 4.41763L109.38 5.58735L114.059 11.8258L94.5639 11.8258L94.5639 13.7753L114.059 13.7753L109.38 20.0139Z" fill="#E78431"/>
</svg>
